<svg xmlns="http://www.w3.org/2000/svg" width="1024" height="1024"><path fill="#fef7ea" d="M0 0h1024v1024H0z"/><path fill="#fef7ea" d="M483 157c1.8 1.857 3.172 3.82 4.613 5.965 3.773 5.536 9.077 7.597 15.387 9.035 8.482 1.253 16.656-1.867 24-6 1.125-1.833 1.125-1.833 2-4l3-5 14 3 .688 3.5c1.718 6.827 5.28 12.712 11.312 16.5 7.398 3.7 15.725 4.607 23.73 2.168 3.343-1.456 6.234-3.144 9.27-5.168l11 6-.5 3c-1.257 9.69-.015 15.663 5.5 24 4.923 5.172 10.5 7.757 17.672 8.145 4.88.072 9.54-.11 14.328-1.145 2.597 2.85 5.006 5.691 7 9-.437 3.188-.437 3.188-2 6-2.855 7.347-3.35 15.302-1.16 22.922 3.208 7.13 8.009 11.183 15.035 14.39 4.344.956 8.694 1.355 13.125 1.688a742 742 0 0 1 2 4.813l1.125 2.707C675 281 675 281 675 284c-1.61 1.578-1.61 1.578-3.75 3.25-4.891 4.095-8.01 8.364-9.25 14.75-.673 9.058-.045 16.269 5.5 23.625 4.013 4.43 9.214 6.732 14.5 9.375v12l-4.625 2.063c-7.41 3.736-11.585 8.883-14.68 16.554-2.06 7.06-.936 13.347 1.946 19.996 1.89 3.32 4.307 5.878 7.066 8.5C673 396 673 396 672.797 398.461c-1.125 3.584-2.432 7.038-3.797 10.539l-2.492.008c-9.59.332-16.18 2.554-22.946 9.492-3.494 5.59-5.05 9.876-4.937 16.5l-.035 2.078c.02 3.62.41 5.92 2.058 9.172C642 449 642 449 641.36 451.137L640 453l-1.297 1.957c-1.468 1.875-2.872 3.517-4.703 5.043-2.687-.062-2.687-.062-6-1-8.107-.884-14.285.25-21 5-5.1 4.685-8.736 9.21-9.23 16.305l.043 3.57.019 3.555c.04 3.595.04 3.595 1.113 7.047.062 3.998-.28 4.42-2.847 7.242a177 177 0 0 1-4.035 3.781l-2.117 2.015a275 275 0 0 1-11.794 10.551c-3.826 3.438-7.387 7.15-11.004 10.806-3.683 3.706-7.437 7.245-11.425 10.624-2.447 2.136-4.686 4.458-6.961 6.774-2.386 2.343-4.923 4.478-7.489 6.62-1.818 1.688-3.339 3.327-4.921 5.22-7.333 8.52-7.333 8.52-13.176 9.59-3.926-.075-3.926-.075-7.535-.473-3.357-.21-4.616.007-7.633 1.05-2.395.668-3.527.918-5.85-.025-1.961-1.33-3.736-2.77-5.533-4.314q-2.1-1.689-4.203-3.372l-2.19-1.784c-3.685-2.942-7.52-5.668-11.357-8.407l-4.5-3.238A6561 6561 0 0 0 456 534l.477-2.11c1.46-8.067 1.723-15.843-2.856-22.886-4.19-5.18-8.88-9.814-15.621-11.004-5.214-.29-10.01-.29-15.062 1.063-6.433-.103-9.586-4.711-13.938-9.063l-2-1 .5-2.75c1.312-9.84 1.345-17.853-4.5-26.25-4.605-4.815-10.652-8.483-17.367-9.281-4.318-.058-8.381.533-12.633 1.281-3.087-3.113-5.838-6.17-8-10 .14-3.482 1.425-5.945 3-9 2.284-7.73.613-14.02-3-21-3.497-5.443-7.814-9.009-14-11q-2.841-.303-5.687-.562c-2.813-.415-2.813-.415-5.313-1.438-3.097-4.205-5-8.754-5-14l2.188-1.562c5.255-4.555 8.247-11.595 9.05-18.481.296-8.54-2.857-15.205-8.597-21.453-4.117-3.774-8.122-5.4-13.641-6.504v-14l4.063-1.5c6.52-2.917 10.955-7.733 13.875-14.25 2.572-8.2 1.73-16.392-1.801-24.125-2.583-4.828-5.302-7.573-10.137-10.125q.68-2.159 1.375-4.312l.773-2.426C333 264 333 264 335 261c2.25-.336 2.25-.336 5-.375 8.106-.562 14.318-3.472 19.938-9.375 4.484-5.627 6.639-11.887 6.363-19.137-.482-3.386-1.478-6.573-2.547-9.816L363 220l-.812-2.062C362 216 362 216 363.434 214.078l2.003-1.828 1.997-1.86L369 209l2.813 1c8.376 2.348 17.282 1.575 25.187-2 6.638-4.082 9.596-9.788 12-17l-.07-2.707c-.06-3.381.085-6.048 1.07-9.293 3.264-3.017 6.685-4.914 11-6 2.712.925 4.5 2.348 6.875 4 7.015 4.49 13.916 5.13 21.969 3.383 7.662-2.379 12.414-6.264 16.21-13.352 1.165-2.617 2.04-5.315 2.946-8.031 4.681-1.779 9.046-2.9 14-2"/><path fill="#3f2e28" d="M525 126c5.28 4.477 7.18 9.43 9 16l15 2 4-6c5.84-5.501 12.29-6.823 20.094-6.638 7.407.468 12.748 2.48 17.996 7.728 6.554 7.841 7.233 14.99 6.91 24.91l2.25.855c2.406 1.002 4.51 2.143 6.75 3.458 2.008 1.095 2.008 1.095 4 1.687 2.803-1.065 2.803-1.065 5-3 6.273-2.148 14.4-2.126 20.672-.164 7.208 3.703 12.686 9.375 15.265 17.101 1.66 6.742 2.059 12.131-1 18.438-.941 2.193-.941 2.193-.937 4.625 2.143 4.668 4.872 7.95 9 11 3.213.64 5.827.516 9.082.219 6.754-.507 11.612 2.221 16.73 6.406 6.53 6.312 8.386 11.766 8.75 20.813-.197 7.555-1.966 13.756-7.23 19.328-.66.61-.66.61-1.332 1.234l1.094 2.52 1.406 3.293 1.406 3.269C690 278 690 278 690 281l2.438.125c7.598 1.866 12.885 6.599 17.37 12.848 3.97 6.754 3.988 13.352 3.192 21.027-2.128 7.325-6.622 12.853-13 17-2.246.684-2.246.684-4 1l1 2c.07 2.207.084 4.417.063 6.625l-.028 3.602L697 348c.938.3 1.877.598 2.844.906 7.52 2.606 10.6 8.353 14.156 15.094 2.303 6.91 1.73 15.137-.898 21.902-3.162 6.02-7.674 10.645-13.903 13.422-3.99 1.226-8.046 1.506-12.199 1.676q-.722 2.343-1.437 4.688l-.81 2.636L684 411l-.777 2.55c-.298 3.27.686 4.377 2.652 6.95 4.861 6.422 4.966 13.655 4.125 21.5-2.222 7.331-6.605 12.829-13 17-5.591 2.962-9.48 3.186-15.562 2.75-5.667-.314-5.667-.314-10.805 1.797-1.598 1.889-1.598 1.889-2.723 3.922L647 469h-2l1.438 2.688c3.317 7.032 3.991 15.597 1.726 23.07-3.4 7.463-8.458 12.032-15.414 16.18-6.423 1.82-12.978 2.072-19.29-.227-3.453-1.111-3.453-1.111-6.108.84l-2.727 2.762-1.577 1.555a342 342 0 0 0-3.736 3.769c-3.334 3.408-6.713 6.771-10.088 10.14a1779 1779 0 0 0-8.29 8.324c-4.895 4.944-9.815 9.782-15.112 14.3-3.269 2.869-6.28 5.995-9.322 9.099-4.56 4.62-9.115 9.125-14.18 13.203-1.598 1.374-1.598 1.374-2.32 4.297a201 201 0 0 0 3 6c2.328 7.62 1.54 15.417-1.672 22.61-2.995 5.39-6.26 9.515-12 11.945-1.888.932-1.888.932-3.328 2.445-1.028 3.574-.98 7.051-.937 10.75l-.05 2.98A292 292 0 0 0 525 643l1.793-.176 2.394-.136 2.356-.176c4.028.8 5.155 2.063 7.457 5.488.7 4.468.58 8.883.488 13.395l-.021 3.946a981 981 0 0 1-.124 10.352c-.051 3.526-.074 7.052-.099 10.578-.053 6.91-.139 13.82-.244 20.729l2.206-.02q10.307-.09 20.613-.135 5.298-.022 10.596-.071c4.064-.04 8.127-.054 12.19-.067 1.265-.015 2.53-.03 3.833-.047h3.578l3.143-.02c3.298.418 5.174 1.406 7.841 3.36 2.29 4.58 1.312 11.316 1.35 16.403q.025 2.401.082 4.803c.055 2.313.077 4.625.091 6.939l.07 2.156c-.015 3.395-.475 5.51-2.279 8.397-4.458 4.14-11.273 2.904-16.927 2.79q-2.007-.014-4.014-.021c-3.51-.02-7.02-.068-10.53-.124-3.586-.051-7.173-.074-10.759-.099-7.028-.053-14.056-.139-21.084-.244l.014 2.313q.166 27.855.245 55.71c.026 8.98.061 17.96.118 26.94q.076 11.74.093 23.48c.007 4.145.022 8.29.059 12.434q.05 5.851.037 11.704 0 2.147.03 4.294c.025 1.956.016 3.911.005 5.867l.014 3.316c-.826 3.953-2.499 5.456-5.615 7.942-2.861.5-5.116.704-7.969.664l-2.297.015q-2.394.005-4.79-.027c-2.437-.027-4.87 0-7.307.032q-2.334-.005-4.668-.02l-2.194.03c-3.709-.085-5.544-.51-8.469-2.843-2.732-3.377-2.925-4.824-2.907-9.109l-.021-3.82.054-4.167q.003-2.205-.002-4.406c-.001-3.982.028-7.962.063-11.943.031-4.163.034-8.326.04-12.488.016-7.88.057-15.76.107-23.64.056-8.972.083-17.944.108-26.917.053-18.454.14-36.907.252-55.361l-2.282.034q-10.659.15-21.32.225c-3.653.026-7.306.061-10.959.118-3.527.055-7.054.084-10.582.097a466 466 0 0 0-5.99.092c-10.102.004-10.102.004-13.193-2.877-2.14-3.438-2.363-6.286-2.268-10.22v-2.162q.008-2.255.052-4.509c.042-2.291.041-4.58.034-6.872q.016-2.197.04-4.395v-2.061c.106-4.297.854-7.043 3.468-10.47 2.703-1.351 4.8-1.12 7.827-1.114h3.7l4.012.016 4.094.005q5.391.006 10.782.024 5.5.014 11 .02 10.792.016 21.585.049l-.034-2.168q-.15-10.13-.225-20.26c-.026-3.472-.061-6.943-.118-10.415-.065-3.993-.09-7.987-.111-11.981l-.078-3.766c-.004-9.603-.004-9.603 2.972-12.671 5.127-3.437 4.97-2.739 12.594-2.739v-21l-6-2c-7.172-3.842-10.507-9.298-13-17-.988-8.007.116-15.243 2-23-9.514-7.038-19.04-14.058-28.625-21l-2.146-1.56q-2.055-1.484-4.125-2.945a198 198 0 0 1-4.446-3.26c-.78-.564-1.558-1.13-2.361-1.712l-2.122-1.58c-2.207-1.207-2.207-1.207-4.847-.367a100 100 0 0 0-4.996 2.307c-5.181 2.482-9.622 1.179-14.832-.508-8.002-3.157-12.99-7.506-16.625-15.387-2.308-7.882-1.787-16.364 1.125-23.988-3.062-3.46-6.081-6.523-10-9-2.938.08-4.872.857-7.566 2-5.741 2.359-11.017 1.37-16.684-.75-7.864-3.52-12.362-8.287-15.75-16.25-1.645-7.425-1.328-13.858 1.309-20.977.906-2.653.913-4.446-.094-7.066-1.539-2.583-2.765-4.18-5.215-5.957-3.791-.429-7.36-.241-11.168-.043-7.31.082-13.398-2.245-18.77-7.207-6.203-7.083-7.737-12.848-7.453-22.336.781-6.824 3.601-12.464 8.391-17.414h2l-1.312-2.992-1.688-3.883-.867-1.973C321 391.227 321 391.227 321 389l-3 .188c-7.264-.03-12.912-3.1-18-8.188-6.055-8.363-6.871-15.843-6-26 2.125-7.87 7.078-12.893 14-17h2c.162-5.147.105-9.954-1-15-2.103-2.068-3.923-2.831-6.645-3.922-4.892-2.24-7.389-6.744-9.386-11.57-3.08-9.384-2.193-16.628 2.031-25.508 3.376-5.283 7.38-8.338 13-11l3.625-.5c4.928-2.19 5.698-5.609 7.625-10.457 1.17-4.746.042-7.864-2.25-12.043-3.547-6.876-3.83-13.442-1.875-20.937 2.857-8.677 7.592-13.401 15.41-17.934 5.9-2.702 12.247-2.843 18.465-1.129l1.46-1.68c.633-.724 1.264-1.449 1.915-2.195l1.898-2.18A91 91 0 0 1 358 198a105 105 0 0 0-.625-6.937c-.814-8.834.868-15.851 6.313-22.938 5.538-5.66 10.668-8.327 18.61-8.665 7.202-.073 12.582.419 18.702 4.54l2 1a94 94 0 0 0 6-2.937c5.804-3.063 5.804-3.063 8-3.063l-.176-1.836c-.425-7.906 1.515-14.033 6.82-20.02 6.797-6.213 12.988-7.738 22.07-7.488 8.035.84 13.556 3.882 19.009 9.758C466 141 466 141 467 143c4.915-.027 9.34-.37 14-2 2.206-2.884 3.333-5.642 4.66-9.012 2.661-5.934 7.818-8.571 13.652-10.925 9.167-2.63 17.931-.316 25.688 4.937m-56 33c-1.092 1.927-1.7 3.79-2.336 5.91-1.78 5.6-5.743 10-10.664 13.09-6.769 3.248-14.19 4.49-21.457 2.238-3.605-1.512-6.284-3.01-9.23-5.613-2.247-1.985-2.247-1.985-5.188-1.125L417 175l-1.902.617c-2.224.883-3.505 1.581-5.098 3.383-.6 2.993-.692 5.845-.777 8.895-.513 7.148-4.183 13.18-9.223 18.105-7.935 5.032-17.036 6.379-26.27 4.55-1.594-.457-3.166-.994-4.73-1.55l-7 7 1.438 4.188c2.761 8.363 3.845 16.082.726 24.507-3.44 6.812-8.647 11.88-15.73 14.703-2.789.69-5.316.704-8.184.727-2.768.024-2.768.024-5.25.875-2.782 3.395-5 7.524-5 12l3.188 2c5.551 3.761 7.753 9.822 9.812 16 .94 10.26-.858 17.33-7.25 25.375-3.525 3.838-6.775 5.229-11.75 6.625v14l4 1.063c6.981 2.352 12.07 6.61 15.438 13.187 3.326 7.46 3.5 13.678.875 21.438-1.969 4.994-4.303 9.807-9.313 12.312.24 2.142.24 2.142 1 5l.5 2.23c.859 2.743 1.643 4.56 3.5 6.77 3.23 1.202 6.336 1.764 9.73 2.336 5.643 1.146 9.455 3.899 13.52 7.851 3.795 6.1 6.772 12.53 5.75 19.813a136 136 0 0 1-3.32 8.352c-.86 3.346-.292 4.64 1.32 7.648 1.698 2.69 3.518 4.994 6 7 2.916.057 2.916.057 6-1 8.024-1.25 14.38 1.546 21 6 4.431 4.38 7.723 9.557 8.23 15.867l-.043 3.008-.019 3.191C408 482 408 482 407 485.813c-.342 3.188-.342 3.188 1.574 5.058 2.07 1.841 4.184 3.503 6.426 5.129l2.047 1.723c2.667 1.744 4.582 1.117 7.617.62 8.067-1.186 15.419-1.016 22.336 3.657 5.114 4.676 9.73 9.97 10.207 17.086.063 5.115-.053 9.916-1.207 14.914l2.43 1.73c6.07 4.327 12.133 8.663 18.182 13.017q2.271 1.635 4.55 3.26c3.84 2.757 7.595 5.572 11.26 8.56l2.145 1.715a157 157 0 0 1 3.956 3.288c3.341 2.76 3.341 2.76 7.473 3.259a73 73 0 0 0 4.057-1.276c3.023-.859 5.756-.053 8.822.447 5.856.147 8.423-.858 12.816-4.754 3.924-3.833 7.58-7.89 11.217-11.995 2.595-2.793 5.383-5.262 8.301-7.71 1.86-1.6 3.577-3.288 5.291-5.041a105 105 0 0 1 7.063-6.562c4.014-3.452 7.716-7.177 11.437-10.938 3.68-3.719 7.334-7.408 11.313-10.812q1.845-1.593 3.687-3.188l2.516-2.168c2.377-2.176 4.527-4.27 6.484-6.832.218-3.335.218-3.335-1-7-1.154-15.561-1.154-15.561 4-22 4.909-5.26 10.248-9.632 17.672-10.207 4.137-.062 7.567-.047 11.515 1.27 2.946.241 2.946.241 4.95-2A121 121 0 0 0 642 451l-.937-2.312c-2.97-7.512-3.531-16.693-1.227-24.532 2.798-5.483 6.953-8.996 12.164-12.156l1.824-1.121c2.975-1.202 5.732-1.312 8.926-1.504l3.547-.227L669 409a336 336 0 0 0 2.063-4.75l1.16-2.672c.856-2.838.933-3.885-.223-6.578-1.526-2.135-1.526-2.135-3.375-4.25-4.952-6.233-7.375-11.97-7.102-20.031 1.348-7.69 5.425-14.884 11.664-19.606 2.839-1.743 5.686-2.964 8.813-4.113v-12l-5.125-2.562c-7.025-3.856-11.896-8.385-14.402-16.145-1.762-8.545-.962-16.746 3.527-24.293 2.608-3.184 5.289-6.144 9-8a513 513 0 0 0-.875-4.25l-.492-2.39c-.863-3.396-.863-3.396-2.633-6.36-3.034-.706-3.034-.706-6.562-.875-8.406-.983-13.6-3.56-18.875-10.187-3.909-7.348-4.357-13.654-3.563-21.938a48 48 0 0 1 3.32-7.816c.945-3.035.113-4.412-1.32-7.184-1.482-2.523-2.817-3.916-5-6-2.781.043-2.781.043-6 1-8.767.682-16.549-.13-23.75-5.5-4.65-4.358-7.636-10.45-8.59-16.742-.075-4.272.639-8.552 1.34-12.758l-12-6-5 4c-7.733 3.246-16.547 3.219-24.437.438-6.806-3.127-10.79-8.578-13.563-15.438l-1-6-14-3-2.5 3.375-1.406 1.898c-1.272 1.668-1.272 1.668-1.094 3.727-9.46 4.895-18.06 7.81-28.562 4.938-5.984-2.212-10.998-6.231-14-11.875L483 157c-4.944-.666-9.473-.09-14 2"/><path fill="#ece8e3" d="M450 503c3.499 1.397 4.709 2.713 6.25 6.125l1.016 2.195L458 513l-2 1a832 832 0 0 1-2.437-3.812l-1.372-2.145C451 506 451 506 450 503"/><path fill="#f2eee9" d="M650 204c3 3.75 3 3.75 3 6l3 1 1 5c-3.263-3.086-6.022-5.935-8-10z"/><path fill="#e9e3dd" d="m547 569 1 3-6 5-2-1z"/><path fill="#2e201c" d="M334 387c2.523 1.974 2.993 2.967 3.688 6.188L338 396l-1-2h-2z"/><path fill="#493830" d="m694 333 3 2c.188 3.125.188 3.125 0 6h-3z"/><path fill="#f0eae3" d="m334 262 3 3-4 4c-1-3-1-3-.062-5.187z"/></svg>