<svg xmlns="http://www.w3.org/2000/svg" xml:space="preserve" width="800" height="800" fill="#fff" stroke="#fff" viewBox="0 0 466 466"><path id="SVGRepo_iconCarrier" d="M146.861 152.98c-6.058 0-10.986 4.929-10.986 11.014 0 6.058 4.929 10.986 10.986 10.986s10.986-4.928 10.986-11.013c.001-6.058-4.928-10.987-10.986-10.987zm-20.158-16.59c-6.058 0-10.986 4.928-10.986 11.014 0 6.058 4.929 10.986 10.986 10.986s10.986-4.928 10.986-11.014c0-6.058-4.928-10.986-10.986-10.986zm52.586 42.436c0-6.058-4.929-10.986-10.986-10.986s-10.986 4.928-10.986 11.014c0 6.058 4.929 10.986 10.986 10.986s10.986-4.929 10.986-11.014zm-76.563-70.014c0-6.058-4.929-10.986-10.986-10.986s-10.986 4.928-10.986 11.013c0 6.058 4.929 10.987 10.986 10.987s10.986-4.93 10.986-11.014zM88.682 86.816c0-6.058-4.929-10.986-10.986-10.986S66.71 80.758 66.71 86.844c0 6.058 4.929 10.986 10.986 10.986s10.986-4.929 10.986-11.014zm-11.081-23.6c0-6.058-4.929-10.986-10.986-10.986s-10.986 4.928-10.986 11.014c0 6.058 4.929 10.986 10.986 10.986s10.986-4.928 10.986-11.014zm113.161 139.838c6.058 0 10.986-4.928 10.986-11.014 0-6.058-4.929-10.986-10.986-10.986-6.059 0-10.987 4.928-10.987 11.014-.001 6.057 4.928 10.986 10.987 10.986zM119.185 129c0-6.058-4.929-10.987-10.987-10.987s-10.986 4.929-10.986 11.014c0 6.058 4.929 10.986 10.986 10.986s10.987-4.929 10.987-11.013zm199.954 23.98c-6.058 0-10.986 4.929-10.986 11.014 0 6.058 4.929 10.986 10.986 10.986s10.986-4.928 10.986-11.013c0-6.058-4.929-10.987-10.986-10.987zm20.158-16.59c-6.058 0-10.986 4.928-10.986 11.014 0 6.058 4.929 10.986 10.986 10.986s10.986-4.928 10.986-11.014c0-6.058-4.929-10.986-10.986-10.986zm-41.6 31.449c-6.058 0-10.986 4.928-10.986 11.014 0 6.058 4.929 10.986 10.986 10.986s10.986-4.928 10.986-11.014c.001-6.057-4.928-10.986-10.986-10.986zm76.564-70.014c-6.058 0-10.986 4.928-10.986 11.013 0 6.058 4.929 10.987 10.986 10.987s10.986-4.929 10.986-11.014c0-6.058-4.929-10.986-10.986-10.986zm14.044-21.995c-6.058 0-10.986 4.928-10.986 11.014 0 6.058 4.929 10.986 10.986 10.986s10.986-4.928 10.986-11.014c0-6.058-4.929-10.986-10.986-10.986zm11.081-23.6c-6.058 0-10.986 4.928-10.986 11.014 0 6.058 4.929 10.986 10.986 10.986s10.986-4.928 10.986-11.014c0-6.058-4.929-10.986-10.986-10.986zM275.238 203.054c6.059 0 10.987-4.928 10.987-11.014 0-6.058-4.929-10.986-10.987-10.986s-10.986 4.928-10.986 11.014c0 6.057 4.929 10.986 10.986 10.986zm82.565-85.041c-6.059 0-10.987 4.929-10.987 11.014 0 6.058 4.929 10.986 10.987 10.986s10.986-4.928 10.986-11.013c0-6.059-4.929-10.987-10.986-10.987zM233 244.586c-6.058 0-10.986 4.928-10.986 11.014 0 6.058 4.929 10.986 10.986 10.986s10.986-4.928 10.986-11.014c0-6.057-4.928-10.986-10.986-10.986zm0 25.587c-6.058 0-10.986 4.928-10.986 11.013 0 6.058 4.929 10.987 10.986 10.987s10.986-4.929 10.986-11.014c0-6.057-4.928-10.986-10.986-10.986zm49.094 59.626h-29.165v-26.04a8 8 0 0 0-8-8h-23.857a8 8 0 0 0-8 8v26.04h-29.165a8 8 0 0 0-8 8v23.857a8 8 0 0 0 8 8h29.165V458a8 8 0 0 0 8 8h23.857a8 8 0 0 0 8-8v-88.343h29.165a8 8 0 0 0 8-8V337.8a8 8 0 0 0-8-8.001zm-8 23.858h-29.165a8 8 0 0 0-8 8V450h-7.857v-88.343a8 8 0 0 0-8-8h-29.165V345.8h29.165a8 8 0 0 0 8-8v-26.04h7.857v26.04a8 8 0 0 0 8 8h29.165zM233 241c16.91 0 30.668-13.758 30.668-30.668S249.91 179.664 233 179.664s-30.668 13.758-30.668 30.668S216.09 241 233 241zm0-45.336c8.088 0 14.668 6.58 14.668 14.668S241.088 225 233 225s-14.668-6.58-14.668-14.668 6.58-14.668 14.668-14.668zM83.903 24.737C83.903 11.097 72.807 0 59.167 0S34.43 11.097 34.43 24.737s11.097 24.737 24.737 24.737 24.736-11.097 24.736-24.737zm-33.473 0c0-4.817 3.92-8.737 8.737-8.737s8.736 3.919 8.736 8.737-3.919 8.737-8.736 8.737-8.737-3.92-8.737-8.737zM406.833 0c-13.64 0-24.736 11.097-24.736 24.737s11.097 24.737 24.736 24.737c13.641 0 24.737-11.097 24.737-24.737S420.474 0 406.833 0zm0 33.474c-4.817 0-8.736-3.919-8.736-8.737S402.016 16 406.833 16s8.737 3.919 8.737 8.737-3.92 8.737-8.737 8.737z"/></svg>