<?xml version="1.0" encoding="UTF-8"?>
<svg version="1.1" xmlns="http://www.w3.org/2000/svg" width="1024" height="1024">
<path d="M0 0 C337.92 0 675.84 0 1024 0 C1024 337.92 1024 675.84 1024 1024 C686.08 1024 348.16 1024 0 1024 C0 686.08 0 348.16 0 0 Z " fill="#FEF7EA" transform="translate(0,0)"/>
<path d="M0 0 C1.79950544 1.85670244 3.17201744 3.81997083 4.61328125 5.96484375 C8.3857697 11.50136906 13.69021135 13.5621957 20 15 C28.48247592 16.25275 36.65634635 13.13286338 44 9 C45.12516085 7.16715557 45.12516085 7.16715557 46 5 C46.99 3.35 47.98 1.7 49 0 C53.62 0.99 58.24 1.98 63 3 C63.226875 4.155 63.45375 5.31 63.6875 6.5 C65.40632344 13.3268762 68.96770775 19.21228161 75 23 C82.39825982 26.69912991 90.72537014 27.60729065 98.73046875 25.16796875 C102.07302533 23.71207543 104.9639281 22.02404794 108 20 C113.445 22.97 113.445 22.97 119 26 C118.835 26.99 118.67 27.98 118.5 29 C117.24274489 38.6905355 118.48510975 44.6632657 124 53 C128.92333107 58.17198415 134.50015407 60.75658728 141.671875 61.14453125 C146.55140845 61.21706486 151.21125579 61.03540415 156 60 C158.59737737 62.85078004 161.00591772 65.69101878 163 69 C162.5625 72.1875 162.5625 72.1875 161 75 C158.14469203 82.34668655 157.64975862 90.30241605 159.83984375 97.921875 C163.04816895 105.05148656 167.84852728 109.10476245 174.875 112.3125 C179.21936723 113.26826079 183.56884867 113.66722579 188 114 C188.67305018 115.60149886 189.33822227 117.20631029 190 118.8125 C190.37125 119.70582031 190.7425 120.59914063 191.125 121.51953125 C192 124 192 124 192 127 C190.390625 128.578125 190.390625 128.578125 188.25 130.25 C183.35877049 134.34478152 180.24017472 138.61367969 179 145 C178.32715479 154.05753165 178.95498872 161.26904573 184.5 168.625 C188.51313492 173.05574541 193.71397571 175.35698785 199 178 C199 181.96 199 185.92 199 190 C197.47375 190.680625 195.9475 191.36125 194.375 192.0625 C186.96485054 195.79897367 182.78972276 200.94617048 179.6953125 208.6171875 C177.63547819 215.67617025 178.759492 221.9637098 181.640625 228.61328125 C183.5309597 231.93223096 185.94839975 234.49115935 188.70703125 237.11328125 C190 239 190 239 189.796875 241.4609375 C188.67207942 245.04484498 187.36463083 248.49942527 186 252 C185.17757813 252.00257813 184.35515625 252.00515625 183.5078125 252.0078125 C173.91861762 252.3400017 167.32745249 254.56158719 160.5625 261.5 C157.0683176 267.09069184 155.51293611 271.37577869 155.625 278 C155.60759766 279.02867187 155.60759766 279.02867187 155.58984375 280.078125 C155.61057358 283.69893448 155.99945564 285.99892676 157.6484375 289.25 C159 292 159 292 158.359375 294.13671875 C157.91078125 294.75160156 157.4621875 295.36648438 157 296 C156.57203125 296.64582031 156.1440625 297.29164063 155.703125 297.95703125 C154.23485269 299.83184132 152.83072245 301.47366273 151 303 C148.3125 302.9375 148.3125 302.9375 145 302 C136.89345785 301.11634849 130.71480319 302.24939094 124 307 C118.89969684 311.6847229 115.26435912 316.2093591 114.76953125 323.3046875 C114.78371094 324.48289062 114.79789063 325.66109375 114.8125 326.875 C114.81894531 328.04804688 114.82539062 329.22109375 114.83203125 330.4296875 C114.87191377 334.02496298 114.87191377 334.02496298 115.9453125 337.4765625 C116.00737464 341.47513743 115.66535589 341.89725541 113.09765625 344.71875 C111.7730263 346.00061223 110.4266231 347.26024863 109.0625 348.5 C108.36390869 349.16507568 107.66531738 349.83015137 106.94555664 350.51538086 C103.11118725 354.14231788 99.18906743 357.6656653 95.15234375 361.06640625 C91.32579574 364.50404919 87.76512204 368.21626343 84.14794922 371.87158203 C80.46519724 375.57820277 76.71128085 379.11719521 72.72265625 382.49609375 C70.27606841 384.63200377 68.03656563 386.95378825 65.76171875 389.26953125 C63.37631783 391.61261907 60.83884122 393.747874 58.2734375 395.890625 C56.45518786 397.57766075 54.93417379 399.21749178 53.3515625 401.109375 C46.01943456 409.63076733 46.01943456 409.63076733 40.17578125 410.69921875 C36.25 410.625 36.25 410.625 32.640625 410.2265625 C29.28366188 410.01765278 28.02534496 410.23416052 25.0078125 411.27734375 C22.61322822 411.94468691 21.48123569 412.19545416 19.15820312 411.25195312 C17.19653518 409.92226037 15.42177658 408.48281107 13.625 406.9375 C12.22564219 405.81170585 10.82453314 404.68808575 9.421875 403.56640625 C8.69935547 402.97746582 7.97683594 402.38852539 7.23242188 401.78173828 C3.54700391 398.84033624 -0.28801703 396.11382894 -4.125 393.375 C-5.62510897 392.29572436 -7.12511021 391.21629896 -8.625 390.13671875 C-14.74278499 385.74769614 -20.86714245 381.36793552 -27 377 C-26.84273437 376.30390625 -26.68546875 375.6078125 -26.5234375 374.890625 C-25.06255206 366.82304869 -24.8001488 359.04715071 -29.37890625 352.00390625 C-33.56942431 346.82382006 -38.25940029 342.1895176 -45 341 C-50.21366224 340.7107984 -55.01010747 340.70972959 -60.0625 342.0625 C-66.49539453 341.96039056 -69.64800426 337.35199574 -74 333 C-74.66 332.67 -75.32 332.34 -76 332 C-75.835 331.0925 -75.67 330.185 -75.5 329.25 C-74.18803626 319.41027196 -74.15460968 311.39694959 -80 303 C-84.60525641 298.18541375 -90.65161163 294.5166402 -97.3671875 293.71875 C-101.68521091 293.6605948 -105.7480364 294.2518004 -110 295 C-113.08723204 291.88677021 -115.83763412 288.8294115 -118 285 C-117.86007098 281.51792028 -116.57489036 279.054693 -115 276 C-112.71615052 268.2700479 -114.38667624 261.97977447 -118 255 C-121.49741684 249.55727438 -125.81397494 245.99139163 -132 244 C-133.89432159 243.79779713 -135.79032486 243.61089773 -137.6875 243.4375 C-140.5 243.0234375 -140.5 243.0234375 -143 242 C-146.09720383 237.7947448 -148 233.24614552 -148 228 C-146.9171875 227.2265625 -146.9171875 227.2265625 -145.8125 226.4375 C-140.5569983 221.88273186 -137.56490747 214.84338701 -136.76171875 207.95703125 C-136.46613632 199.41625472 -139.61882595 192.75182706 -145.359375 186.50390625 C-149.47623045 182.73012208 -153.48091255 181.10381749 -159 180 C-159 175.38 -159 170.76 -159 166 C-157.659375 165.505 -156.31875 165.01 -154.9375 164.5 C-148.41622734 161.58339931 -143.98165243 156.76717751 -141.0625 150.25 C-138.48967396 142.049117 -139.33159423 133.8575358 -142.86328125 126.125 C-145.4456801 121.29742276 -148.1648814 118.55186815 -153 116 C-152.54738642 114.56068883 -152.08767021 113.12361001 -151.625 111.6875 C-151.36976563 110.88699219 -151.11453125 110.08648437 -150.8515625 109.26171875 C-150 107 -150 107 -148 104 C-145.75 103.6640625 -145.75 103.6640625 -143 103.625 C-134.89378164 103.06265763 -128.68242926 100.152693 -123.0625 94.25 C-118.57796163 88.62317355 -116.42316168 82.36341175 -116.69921875 75.11328125 C-117.1812233 71.72672983 -118.17719492 68.53971782 -119.24609375 65.296875 C-119.49488281 64.53890625 -119.74367188 63.7809375 -120 63 C-120.268125 62.319375 -120.53625 61.63875 -120.8125 60.9375 C-121 59 -121 59 -119.56640625 57.078125 C-118.57447266 56.17320312 -118.57447266 56.17320312 -117.5625 55.25 C-116.90378906 54.63640625 -116.24507813 54.0228125 -115.56640625 53.390625 C-114.79103516 52.70226562 -114.79103516 52.70226562 -114 52 C-113.071875 52.33 -112.14375 52.66 -111.1875 53 C-102.81076188 55.3475133 -93.90521201 54.57488256 -86 51 C-79.36192551 46.91796569 -76.40415095 41.21245285 -74 34 C-74.02320313 33.10667969 -74.04640625 32.21335938 -74.0703125 31.29296875 C-74.12985101 27.91203195 -73.98488432 25.24457562 -73 22 C-69.73578229 18.98315299 -66.31517602 17.08642338 -62 16 C-59.28812315 16.92505674 -57.49950591 18.3481698 -55.125 20 C-48.10961882 24.48984396 -41.20921464 25.13057131 -33.15625 23.3828125 C-25.49366279 21.00404229 -20.7421899 17.11875448 -16.9453125 10.03125 C-15.78090624 7.41410832 -14.90532666 4.71597997 -14 2 C-9.31896681 0.22120739 -4.95374872 -0.90068159 0 0 Z " fill="#FEF7EA" transform="translate(483,157)"/>
<path d="M0 0 C5.27937004 4.47744041 7.18081662 9.4307267 9 16 C13.95 16.66 18.9 17.32 24 18 C25.32 16.02 26.64 14.04 28 12 C33.84063692 6.498935 40.28954309 5.1773767 48.09448242 5.36206055 C55.50075763 5.83038949 60.84161676 7.84161676 66.08984375 13.08984375 C72.6442778 20.93103786 73.32290616 28.07960529 73 38 C73.7425 38.28230469 74.485 38.56460938 75.25 38.85546875 C77.65645069 39.85701712 79.75918725 40.99782962 82 42.3125 C84.0080964 43.40803034 84.0080964 43.40803034 86 44 C88.80329738 42.93478871 88.80329738 42.93478871 91 41 C97.27293661 38.85212374 105.39961156 38.87356268 111.671875 40.8359375 C118.88007398 44.53946043 124.35786339 50.21058848 126.9375 57.9375 C128.59717018 64.67926584 128.99554287 70.06848667 125.9375 76.375 C124.99561809 78.56825624 124.99561809 78.56825624 125 81 C127.14323712 85.6678978 129.87206888 88.95038558 134 92 C137.21343474 92.63929993 139.82747079 92.51574411 143.08203125 92.21875 C149.83564137 91.71245527 154.69421885 94.44034668 159.8125 98.625 C166.34177812 104.93739651 168.19843571 110.39050233 168.5625 119.4375 C168.36506947 126.99301435 166.59587299 133.19359581 161.33203125 138.765625 C160.67267578 139.37664062 160.67267578 139.37664062 160 140 C160.3609375 140.83144531 160.721875 141.66289062 161.09375 142.51953125 C161.78984375 144.14955078 161.78984375 144.14955078 162.5 145.8125 C162.9640625 146.89144531 163.428125 147.97039062 163.90625 149.08203125 C165 152 165 152 165 155 C165.804375 155.04125 166.60875 155.0825 167.4375 155.125 C175.03590835 156.99127573 180.32320551 161.72378203 184.80859375 167.97265625 C188.77763381 174.72653098 188.79603723 181.32452522 188 189 C185.8717842 196.32502184 181.37847982 201.85335407 175 206 C172.75390625 206.68359375 172.75390625 206.68359375 171 207 C171.33 207.66 171.66 208.32 172 209 C172.07092842 211.2072923 172.08415025 213.41667452 172.0625 215.625 C172.05347656 216.81351563 172.04445313 218.00203125 172.03515625 219.2265625 C172.01775391 220.59941406 172.01775391 220.59941406 172 222 C172.9384375 222.2990625 173.876875 222.598125 174.84375 222.90625 C182.36313802 225.51197852 185.4436236 231.25864093 189 238 C191.30333981 244.91001943 190.7292052 253.13677773 188.1015625 259.90234375 C184.93998852 265.92278781 180.42765453 270.54650771 174.19921875 273.32421875 C170.20939824 274.55022044 166.15328977 274.82978321 162 275 C161.51787786 276.56159059 161.03944127 278.12431928 160.5625 279.6875 C160.29566406 280.55761719 160.02882813 281.42773438 159.75390625 282.32421875 C159.38072266 283.64873047 159.38072266 283.64873047 159 285 C158.74347656 285.84175781 158.48695313 286.68351562 158.22265625 287.55078125 C157.92549149 290.81959359 158.90868855 291.92657856 160.875 294.5 C165.73644371 300.92162797 165.84125836 308.15477671 165 316 C162.7777641 323.33130162 158.39539382 328.82860991 152 333 C146.40880043 335.96164147 142.52003386 336.18634252 136.4375 335.75 C130.77062641 335.4358727 130.77062641 335.4358727 125.6328125 337.546875 C124.0352616 339.43583171 124.0352616 339.43583171 122.91015625 341.46875 C122.60980469 341.9740625 122.30945313 342.479375 122 343 C121.34 343 120.68 343 120 343 C120.474375 343.886875 120.94875 344.77375 121.4375 345.6875 C124.75473313 352.72003423 125.42921345 361.28493132 123.1640625 368.7578125 C119.76350734 376.22077583 114.70634665 380.79044719 107.75 384.9375 C101.32729205 386.75726725 94.77189047 387.00962898 88.4609375 384.7109375 C85.00711257 383.59952435 85.00711257 383.59952435 82.3515625 385.55078125 C81.45179688 386.46214844 80.55203125 387.37351562 79.625 388.3125 C79.10462158 388.82578857 78.58424316 389.33907715 78.0480957 389.86791992 C76.79243196 391.11388876 75.5481642 392.37139 74.31201172 393.63671875 C70.9776254 397.04504606 67.59883173 400.40838902 64.22406006 403.7766571 C61.45292916 406.54377122 58.68688555 409.31547212 55.93408203 412.10083008 C51.03873518 417.04477592 46.11904353 421.88283993 40.8215332 426.40112305 C37.5531752 429.26997126 34.54280694 432.39593917 31.5 435.5 C26.93918627 440.12086917 22.38459633 444.62538997 17.3203125 448.703125 C15.7215404 450.07670358 15.7215404 450.07670358 15 453 C15.96476382 455.01723344 16.96838392 457.01612292 18 459 C20.32818147 466.61950298 19.53992827 474.41674515 16.328125 481.609375 C13.33309917 487.0004215 10.06711322 491.12477547 4.328125 493.5546875 C2.43990027 494.48665547 2.43990027 494.48665547 1 496 C-0.02769535 499.57382873 0.02063546 503.05114493 0.0625 506.75 C0.04638672 507.73355469 0.03027344 508.71710937 0.01367188 509.73046875 C-0.0216377 512.15505929 -0.02508421 514.57540513 0 517 C0.59167969 516.94199219 1.18335938 516.88398437 1.79296875 516.82421875 C2.58316406 516.77910156 3.37335938 516.73398437 4.1875 516.6875 C4.96480469 516.62949219 5.74210938 516.57148437 6.54296875 516.51171875 C10.57056069 517.31211461 11.6983846 518.57542411 14 522 C14.69909346 526.46759039 14.58034599 530.88253252 14.48828125 535.39453125 C14.47766914 537.34826912 14.47766914 537.34826912 14.46684265 539.34147644 C14.44781513 542.79263884 14.39875439 546.24273739 14.34332275 549.69348145 C14.29203649 553.21933604 14.26930883 556.74536373 14.24414062 560.27148438 C14.19062898 567.18142469 14.10536972 574.09066117 14 581 C14.72805344 580.99333817 15.45610687 580.98667633 16.20622253 580.97981262 C23.077054 580.91963001 29.94784591 580.87398926 36.81887341 580.84456348 C40.35112466 580.82892657 43.88315759 580.80772499 47.4152832 580.77368164 C51.47869937 580.73476397 55.54188721 580.72027453 59.60546875 580.70703125 C60.8702153 580.69154739 62.13496185 580.67606354 63.43803406 580.66011047 C65.20930412 580.65977058 65.20930412 580.65977058 67.01635742 580.65942383 C68.05338303 580.65276199 69.09040863 580.64610016 70.15885925 580.63923645 C73.45740478 581.05808053 75.33299018 582.04565808 78 584 C80.28982938 588.57965877 79.3115665 595.3159544 79.35009766 600.40258789 C79.36664525 602.00397283 79.39392009 603.60528427 79.43212891 605.20629883 C79.48702731 607.51943116 79.50878918 609.83083436 79.5234375 612.14453125 C79.54610687 612.85615921 79.56877625 613.56778717 79.59213257 614.30097961 C79.57777277 617.69625997 79.11810058 619.81096744 77.31436157 622.69804382 C72.85611579 626.83811317 66.04141574 625.60170051 60.38671875 625.48828125 C59.04866357 625.47894787 57.71059123 625.47183423 56.37251282 625.46684265 C52.86217514 625.44781319 49.35288302 625.39875053 45.84295654 625.34332275 C42.25677635 625.29204083 38.67042608 625.26930974 35.08398438 625.24414062 C28.0555619 625.19062549 21.02783124 625.10536371 14 625 C14.00460896 625.76329715 14.00921793 626.5265943 14.01396656 627.31302166 C14.12437178 645.8827842 14.20712052 664.45248127 14.25906086 683.02250195 C14.28484628 692.00283276 14.32000313 700.98294454 14.37719727 709.96313477 C14.42702204 717.78997372 14.45928856 725.61665406 14.47044247 733.44364721 C14.47696287 737.58835027 14.49229413 741.73259954 14.52865028 745.87715721 C14.5625955 749.77848929 14.57305619 753.67918079 14.56553841 757.58064651 C14.56691364 759.01214517 14.57685572 760.44366531 14.59602737 761.87503624 C14.62093422 763.83057007 14.61193583 765.78644784 14.60127258 767.74211121 C14.60818603 769.38336361 14.60818603 769.38336361 14.61523914 771.05777264 C13.78868948 775.01053972 12.11613397 776.51366026 9 779 C6.13898479 779.5001115 3.8838515 779.70393544 1.03125 779.6640625 C0.27332153 779.66884613 -0.48460693 779.67362976 -1.26550293 779.67855835 C-2.86240727 779.68194946 -4.45938178 779.672802 -6.05615234 779.65185547 C-8.49344402 779.62507204 -10.92613192 779.65162307 -13.36328125 779.68359375 C-14.91928095 779.6802895 -16.47527779 779.67388295 -18.03125 779.6640625 C-18.75534058 779.67418365 -19.47943115 779.68430481 -20.22546387 779.69473267 C-23.93375599 779.60931204 -25.76881911 779.18445749 -28.69374371 776.85068226 C-31.4256804 773.47383144 -31.61932104 772.02681514 -31.60127258 767.74211121 C-31.6081459 766.48152893 -31.61501923 765.22094666 -31.62210083 763.92216492 C-31.60440738 762.53298351 -31.58623337 761.14380815 -31.56762695 759.75463867 C-31.56621598 758.28594003 -31.56700943 756.81723786 -31.56983948 755.34854126 C-31.57127315 751.36724952 -31.54189213 747.38671209 -31.50696969 743.40559554 C-31.47569761 739.24295493 -31.47277479 735.08029672 -31.46684265 730.91755676 C-31.45130666 723.0375039 -31.41028167 715.15779818 -31.3600952 707.27789813 C-31.304194 698.30581335 -31.27671331 689.33371193 -31.25161803 680.36149633 C-31.19936547 661.90746746 -31.11142809 643.45376165 -31 625 C-32.12966438 625.01665459 -32.12966438 625.01665459 -33.28215027 625.03364563 C-40.38840453 625.13393747 -47.49441263 625.21000991 -54.60117626 625.25906086 C-58.25468893 625.28512695 -61.9076156 625.32046776 -65.56079102 625.37719727 C-69.08808948 625.43162765 -72.61482527 625.46144302 -76.14251137 625.47438622 C-78.13956402 625.48808639 -80.13639106 625.52710294 -82.13310242 625.56648254 C-92.23499038 625.56960734 -92.23499038 625.56960734 -95.3260498 622.68933105 C-97.46595029 619.25141466 -97.68855771 616.4029204 -97.59375 612.46875 C-97.59379028 611.75521362 -97.59383057 611.04167725 -97.59387207 610.30651855 C-97.5885304 608.80370231 -97.57100508 607.3008855 -97.54199219 605.79833984 C-97.50012082 603.50661255 -97.500928 601.21782686 -97.5078125 598.92578125 C-97.49731886 597.46091722 -97.4843798 595.99606824 -97.46875 594.53125 C-97.46854858 593.85090698 -97.46834717 593.17056396 -97.46813965 592.46960449 C-97.36201761 588.1734084 -96.61411613 585.42682788 -94 582 C-91.29710692 580.64855346 -89.19930194 580.88024835 -86.17333984 580.88647461 C-84.95222504 580.88655014 -83.73111023 580.88662567 -82.47299194 580.88670349 C-81.13564005 580.89181048 -79.79828857 580.89702648 -78.4609375 580.90234375 C-77.09616141 580.9042086 -75.73138466 580.90563219 -74.36660767 580.90663147 C-70.77284907 580.91045137 -67.17913083 580.92027717 -63.58538818 580.93133545 C-59.91891018 580.94156089 -56.25242565 580.94613152 -52.5859375 580.95117188 C-45.39060659 580.9618999 -38.19530895 580.97897001 -31 581 C-31.01110306 580.28447464 -31.02220612 579.56894928 -31.03364563 578.83174133 C-31.13395525 572.07870982 -31.21001883 565.32588708 -31.25906086 558.57227802 C-31.28512227 555.10035151 -31.32045387 551.62904208 -31.37719727 548.1574707 C-31.44206834 544.16351501 -31.46620862 540.17020442 -31.48828125 536.17578125 C-31.51408768 534.93290848 -31.5398941 533.69003571 -31.56648254 532.40950012 C-31.56960655 522.80701866 -31.56960655 522.80701866 -28.59448242 519.73901367 C-23.46703605 516.30222055 -23.62398609 517 -16 517 C-16 510.07 -16 503.14 -16 496 C-17.98 495.34 -19.96 494.68 -22 494 C-29.17193476 490.15789209 -32.50674418 484.70158738 -35 477 C-35.98777853 468.99287495 -34.88378086 461.75745339 -33 454 C-42.51416155 446.96232342 -52.04048214 439.94167543 -61.625 433 C-62.68726807 432.22813354 -62.68726807 432.22813354 -63.77099609 431.44067383 C-65.14060542 430.4511544 -66.5155093 429.46891562 -67.89599609 428.49462891 C-69.39403594 427.43046089 -70.87449082 426.34135182 -72.34228516 425.23583984 C-73.1213623 424.67074707 -73.90043945 424.1056543 -74.703125 423.5234375 C-75.4034082 423.00185059 -76.10369141 422.48026367 -76.82519531 421.94287109 C-79.03180545 420.73550908 -79.03180545 420.73550908 -81.67211914 421.57617188 C-83.35862732 422.29730646 -85.02387648 423.06960557 -86.66796875 423.8828125 C-91.84935182 426.36501611 -96.29029034 425.06195361 -101.5 423.375 C-109.50202598 420.21803633 -114.48955997 415.86905421 -118.125 407.98828125 C-120.43314085 400.10556806 -119.91158653 391.62391333 -117 384 C-120.0621113 380.54046574 -123.08126853 377.47668118 -127 375 C-129.93839271 375.08025959 -131.87192838 375.85663342 -134.56640625 377 C-140.30707726 379.35892741 -145.58348086 378.37075346 -151.25 376.25 C-159.11351987 372.73083216 -163.61168277 367.96307993 -167 360 C-168.6448992 352.57523401 -168.32836423 346.14204155 -165.69140625 339.0234375 C-164.78484582 336.37033975 -164.7782143 334.5770842 -165.78515625 331.95703125 C-167.32389943 329.37363674 -168.55013653 327.77677811 -171 326 C-174.79136708 325.57137225 -178.35998884 325.75897145 -182.16796875 325.95703125 C-189.47858904 326.03900559 -195.5662731 323.71242316 -200.9375 318.75 C-207.14089101 311.66680113 -208.67507399 305.90246798 -208.390625 296.4140625 C-207.60989219 289.59045773 -204.78989105 283.94955408 -200 279 C-199.34 279 -198.68 279 -198 279 C-198.433125 278.01257813 -198.86625 277.02515625 -199.3125 276.0078125 C-199.87519045 274.71362446 -200.43768005 273.41934907 -201 272.125 C-201.28617187 271.47402344 -201.57234375 270.82304687 -201.8671875 270.15234375 C-204 265.2265625 -204 265.2265625 -204 263 C-205.485 263.0928125 -205.485 263.0928125 -207 263.1875 C-214.2640767 263.1581502 -219.91206418 260.08793582 -225 255 C-231.05512755 246.63737789 -231.87117858 239.15691729 -231 229 C-228.87453225 221.13058527 -223.92191904 216.10691464 -217 212 C-216.34 212 -215.68 212 -215 212 C-214.83815533 206.85333955 -214.89541993 202.04641482 -216 197 C-218.10286524 194.93247703 -219.92284408 194.16853067 -222.64453125 193.078125 C-227.5371789 190.83870419 -230.03400107 186.33449741 -232.03125 181.5078125 C-235.11170173 172.12384382 -234.22423817 164.88005486 -230 156 C-226.62366441 150.71656996 -222.62025763 147.6622273 -217 145 C-215.80375 144.835 -214.6075 144.67 -213.375 144.5 C-208.44749973 142.30999988 -207.67726094 138.89123456 -205.75 134.04296875 C-204.5801749 129.29664711 -205.70820941 126.17914755 -208 122 C-211.54701214 115.12445111 -211.82943415 108.55832979 -209.875 101.0625 C-207.01809926 92.38647425 -202.2831556 87.66179795 -194.46484375 83.12890625 C-188.56471274 80.42662755 -182.21764566 80.28572571 -176 82 C-175.51789063 81.44570312 -175.03578125 80.89140625 -174.5390625 80.3203125 C-173.90742188 79.59585938 -173.27578125 78.87140625 -172.625 78.125 C-171.99851562 77.40570313 -171.37203125 76.68640625 -170.7265625 75.9453125 C-169.52573166 74.5923402 -168.2791655 73.2791655 -167 72 C-167.12311147 69.68140073 -167.34882229 67.36788173 -167.625 65.0625 C-168.43907822 56.22938082 -166.75684944 49.21177888 -161.3125 42.125 C-155.7743686 36.46410214 -150.64350403 33.79765217 -142.70263672 33.46044922 C-135.4996117 33.38747182 -130.11955481 33.87866717 -124 38 C-123.34 38.33 -122.68 38.66 -122 39 C-119.96307473 38.10016512 -117.96752661 37.1053837 -116 36.0625 C-110.19589977 33 -110.19589977 33 -108 33 C-108.05800781 32.39414063 -108.11601562 31.78828125 -108.17578125 31.1640625 C-108.60149114 23.25802164 -106.66120916 17.13081794 -101.35546875 11.14453125 C-94.5590823 4.93113055 -88.36822147 3.40597036 -79.28515625 3.65625 C-71.25132122 4.4968891 -65.73013876 7.53787399 -60.27734375 13.4140625 C-59 15 -59 15 -58 17 C-53.0847682 16.97306722 -48.65921493 16.62968056 -44 15 C-41.79377965 12.11627892 -40.66749598 9.35785454 -39.33984375 5.98828125 C-36.67902881 0.05381062 -31.52164739 -2.5830048 -25.6875 -4.9375 C-16.52056095 -7.56787598 -7.75693794 -5.25294394 0 0 Z M-56 33 C-57.0916124 34.92689477 -57.69976973 36.79087447 -58.3359375 38.91015625 C-60.11562235 44.51092915 -64.07895724 48.90927827 -69 52 C-75.76895487 55.24805896 -83.19078081 56.49093441 -90.45703125 54.23828125 C-94.06189953 52.72579091 -96.74113225 51.22876684 -99.6875 48.625 C-101.93384196 46.63965821 -101.93384196 46.63965821 -104.875 47.5 C-105.90625 47.995 -106.9375 48.49 -108 49 C-108.62777344 49.20367187 -109.25554687 49.40734375 -109.90234375 49.6171875 C-112.12645484 50.49955468 -113.4071084 51.19798576 -115 53 C-115.59947443 55.99289845 -115.69191462 58.84508264 -115.77734375 61.89453125 C-116.28987336 69.04297061 -119.95973748 75.0742889 -125 80 C-132.93460542 85.031701 -142.03553293 86.37850897 -151.26953125 84.55078125 C-152.86446273 84.0927663 -154.43649582 83.5559126 -156 83 C-158.31 85.31 -160.62 87.62 -163 90 C-162.525625 91.381875 -162.05125 92.76375 -161.5625 94.1875 C-158.80078306 102.55081261 -157.7165135 110.26995236 -160.8359375 118.6953125 C-164.27664641 125.50745431 -169.48346329 130.57508069 -176.56640625 133.3984375 C-179.35468689 134.08767541 -181.88221314 134.10190373 -184.75 134.125 C-187.51827027 134.14939325 -187.51827027 134.14939325 -190 135 C-192.78245516 138.39543664 -195 142.52387924 -195 147 C-193.948125 147.66 -192.89625 148.32 -191.8125 149 C-186.2609665 152.76107949 -184.05927989 158.82216033 -182 165 C-181.06025245 175.26019455 -182.85844296 182.33070625 -189.25 190.375 C-192.77483592 194.21332458 -196.0254391 195.60363203 -201 197 C-201 201.62 -201 206.24 -201 211 C-199.68 211.350625 -198.36 211.70125 -197 212.0625 C-190.01870925 214.41524995 -184.93006347 218.67234905 -181.5625 225.25 C-178.23567898 232.70923996 -178.06209737 238.92774142 -180.6875 246.6875 C-182.65582749 251.68186833 -184.99009169 256.49504585 -190 259 C-189.76019964 261.14243087 -189.76019964 261.14243087 -189 264 C-188.835 264.73605469 -188.67 265.47210938 -188.5 266.23046875 C-187.6410282 268.97291518 -186.85738686 270.7900536 -185 273 C-181.77094892 274.20211956 -178.66448979 274.76439566 -175.26953125 275.3359375 C-169.62731584 276.48190718 -165.8154731 279.23495671 -161.75 283.1875 C-157.95495837 289.28667405 -154.97783457 295.71707128 -156 303 C-157.0233082 305.82842386 -158.11255446 308.59661116 -159.3203125 311.3515625 C-160.17915966 314.69810487 -159.61168631 315.99151888 -158 319 C-156.30173311 321.69062766 -154.48195824 323.99419682 -152 326 C-149.08369887 326.05749557 -149.08369887 326.05749557 -146 325 C-137.97641979 323.75081985 -131.62026918 326.54567949 -125 331 C-120.56897652 335.37979777 -117.27677507 340.55673045 -116.76953125 346.8671875 C-116.78371094 347.85976563 -116.79789062 348.85234375 -116.8125 349.875 C-116.81894531 350.92816406 -116.82539063 351.98132813 -116.83203125 353.06640625 C-117 356 -117 356 -118 359.8125 C-118.34201414 363.00102548 -118.34201414 363.00102548 -116.42578125 364.87109375 C-114.35515453 366.7120761 -112.24224546 368.37366757 -110 370 C-109.32453125 370.56847656 -108.6490625 371.13695312 -107.953125 371.72265625 C-105.28622769 373.46680709 -103.37069534 372.84014162 -100.3359375 372.34375 C-92.26925801 371.15668011 -84.91749194 371.32742997 -78 376 C-72.88582476 380.67638592 -68.27041214 385.96932843 -67.79296875 393.0859375 C-67.72974889 398.20099929 -67.84580359 403.00158491 -69 408 C-67.79730469 408.85658203 -67.79730469 408.85658203 -66.5703125 409.73046875 C-60.50070229 414.0570859 -54.43739957 418.39265638 -48.38769531 422.74707031 C-46.87346399 423.83650649 -45.35716713 424.9230772 -43.83886719 426.00683594 C-39.99849061 428.76398742 -36.24305394 431.5790478 -32.578125 434.56640625 C-31.87026855 435.13246582 -31.16241211 435.69852539 -30.43310547 436.28173828 C-29.09708964 437.35657332 -27.77708395 438.45173549 -26.47705078 439.56982422 C-23.13559892 442.32915576 -23.13559892 442.32915576 -19.00439453 442.82861328 C-17.63992651 442.44339408 -16.2863741 442.01735696 -14.94677734 441.55297852 C-11.92351253 440.69422572 -9.19053516 441.49950446 -6.125 442 C-0.26941045 442.14653628 2.29809902 441.14153491 6.69140625 437.24609375 C10.61531232 433.41265929 14.27155433 429.35620711 17.90771484 425.25146484 C20.50321925 422.45849616 23.29065699 419.9892761 26.20922852 417.54125977 C28.06807832 415.94140717 29.7856673 414.25287435 31.5 412.5 C33.77012583 410.18924552 36.09124494 408.03098358 38.5625 405.9375 C42.57741628 402.48608074 46.27866905 398.76060621 50 395 C53.67998663 391.28125627 57.33440744 387.59159924 61.3125 384.1875 C62.5424959 383.12596006 63.7716211 382.06341066 65 381 C65.83015625 380.28457031 66.6603125 379.56914062 67.515625 378.83203125 C69.89250206 376.65565762 72.04338575 374.56113421 74 372 C74.2180773 368.66484281 74.2180773 368.66484281 73 365 C71.84595098 349.43895199 71.84595098 349.43895199 77 343 C81.908926 337.73967582 87.24782524 333.36822407 94.671875 332.79296875 C98.80946385 332.73146405 102.23877083 332.74625694 106.1875 334.0625 C109.13327179 334.30427035 109.13327179 334.30427035 111.13671875 332.0625 C113.18840913 329.77090865 115.12685348 327.43889381 117 325 C116.5359375 323.8553125 116.5359375 323.8553125 116.0625 322.6875 C113.09298202 315.17636629 112.5317026 305.99495563 114.8359375 298.15625 C117.63369947 292.67338761 121.78905281 289.15971947 127 286 C127.90298828 285.44505859 127.90298828 285.44505859 128.82421875 284.87890625 C131.79914238 283.67718665 134.55574265 283.56665544 137.75 283.375 C139.50570312 283.26285156 139.50570312 283.26285156 141.296875 283.1484375 C142.18890625 283.09945312 143.0809375 283.05046875 144 283 C144.70133599 281.42274653 145.385583 279.83788667 146.0625 278.25 C146.44535156 277.36828125 146.82820313 276.4865625 147.22265625 275.578125 C148.07850411 272.7396346 148.15636705 271.69276082 147 269 C145.47394468 266.86505942 145.47394468 266.86505942 143.625 264.75 C138.67297671 258.51675508 136.24977942 252.77922437 136.5234375 244.71875 C137.87139642 237.02875484 141.94804312 229.83465599 148.1875 225.11328125 C151.02600564 223.36980257 153.87336724 222.14855897 157 221 C157 217.04 157 213.08 157 209 C155.30875 208.154375 153.6175 207.30875 151.875 206.4375 C144.84971708 202.58172133 139.97913096 198.05253417 137.47265625 190.29296875 C135.7113095 181.7482535 136.51054482 173.54748987 141 166 C143.60838042 162.81649784 146.28852504 159.85573748 150 158 C149.71517632 156.58194169 149.42181856 155.16559621 149.125 153.75 C148.96257812 152.96109375 148.80015625 152.1721875 148.6328125 151.359375 C147.77007273 147.96433985 147.77007273 147.96433985 146 145 C142.9660907 144.29413703 142.9660907 144.29413703 139.4375 144.125 C131.03190424 143.14219188 125.83820261 140.56594687 120.5625 133.9375 C116.65409406 126.58969683 116.20593741 120.28351655 117 112 C117.90772232 109.22559066 118.95442135 106.75914667 120.3203125 104.18359375 C121.26481189 101.14925375 120.43254964 99.77167213 119 97 C117.51847751 94.47711751 116.18342534 93.08417873 114 91 C111.21853935 91.0427196 111.21853935 91.0427196 108 92 C99.2333981 92.68169533 91.45126541 91.86990912 84.25 86.5 C79.59910635 82.14181993 76.61381952 76.04979777 75.66015625 69.7578125 C75.58535343 65.48574037 76.29892776 61.20643344 77 57 C73.04 55.02 69.08 53.04 65 51 C63.35 52.32 61.7 53.64 60 55 C52.26686008 58.24626462 43.45347556 58.21903904 35.5625 55.4375 C28.75694492 52.31092194 24.77303697 46.85961776 22 40 C21.67 38.02 21.34 36.04 21 34 C16.38 33.01 11.76 32.02 7 31 C6.175 32.11375 5.35 33.2275 4.5 34.375 C4.0359375 35.00148438 3.571875 35.62796875 3.09375 36.2734375 C1.82161899 37.94094613 1.82161899 37.94094613 2 40 C-7.45913883 44.89493898 -16.05923725 47.81018725 -26.5625 44.9375 C-32.54613846 42.72638316 -37.56021639 38.7067932 -40.5625 33.0625 C-41.036875 32.381875 -41.51125 31.70125 -42 31 C-46.94376448 30.33449324 -51.47303652 30.91063224 -56 33 Z " fill="#3F2E28" transform="translate(525,126)"/>
<path d="M0 0 C3.49873271 1.39655297 4.70891831 2.71260484 6.25 6.125 C6.58515625 6.84945313 6.9203125 7.57390625 7.265625 8.3203125 C7.62914062 9.15175781 7.62914062 9.15175781 8 10 C7.01 10.495 7.01 10.495 6 11 C5.18357746 9.73168307 4.37200895 8.46024069 3.5625 7.1875 C3.11003906 6.47980469 2.65757812 5.77210938 2.19140625 5.04296875 C1 3 1 3 0 0 Z " fill="#ECE8E3" transform="translate(450,503)"/>
<path d="M0 0 C3 3.75 3 3.75 3 6 C3.99 6.33 4.98 6.66 6 7 C6.33 8.65 6.66 10.3 7 12 C3.7373124 8.91367389 0.97764782 6.06516496 -1 2 C-0.67 1.34 -0.34 0.68 0 0 Z " fill="#F2EEE9" transform="translate(650,204)"/>
<path d="M0 0 C0.33 0.99 0.66 1.98 1 3 C-1.97 5.475 -1.97 5.475 -5 8 C-5.66 7.67 -6.32 7.34 -7 7 C-4.69 4.69 -2.38 2.38 0 0 Z " fill="#E9E3DD" transform="translate(547,569)"/>
<path d="M0 0 C2.52259061 1.97420135 2.9929808 2.96745642 3.6875 6.1875 C3.790625 7.115625 3.89375 8.04375 4 9 C3.67 8.34 3.34 7.68 3 7 C2.34 7 1.68 7 1 7 C0.67 4.69 0.34 2.38 0 0 Z " fill="#2E201C" transform="translate(334,387)"/>
<path d="M0 0 C1.485 0.99 1.485 0.99 3 2 C3.1875 5.125 3.1875 5.125 3 8 C2.01 8 1.02 8 0 8 C0 5.36 0 2.72 0 0 Z " fill="#493830" transform="translate(694,333)"/>
<path d="M0 0 C0.99 0.99 1.98 1.98 3 3 C1.68 4.32 0.36 5.64 -1 7 C-2 4 -2 4 -1.0625 1.8125 C-0.5365625 0.9153125 -0.5365625 0.9153125 0 0 Z " fill="#F0EAE3" transform="translate(334,262)"/>
</svg>
